# xmcd CD database file
# Copyright (C) 1993-1998 Ti Kan
#
# Track frame offsets:
#	150
#	21707
#	45052
#	66907
#	87927
#	111257
#	134017
#	147880
#	173772
#	192610
#	215615
#	229242
#	241422
#	260515
#	284882
#
# Disc length: 4043 seconds
#
# Revision: 1
# Processed by: cddbd v1.4b41PL1 Copyright (c) Steve Scherf et al.
# Submitted via: CDValet v3.01 - Copyright (c) 1997 Greg Leichner
#
DISCID=ef0fc90f
DTITLE=Elliott and the Untouchables - Last Meal
DYEAR=1900
DGENRE=
TTITLE0=Lollipop Mama/Jump My Baby
TTITLE1=Every Night And Every Day
TTITLE2=Nothin' 'Bout The Blues
TTITLE3=Tigerman
TTITLE4=Can't Hold Out
TTITLE5=29 Ways
TTITLE6=She's Murder
TTITLE7=Kiss Me Baby
TTITLE8=Coupe DeVille
TTITLE9=What I Won't Do For You
TTITLE10=Last Meal
TTITLE11=Honey Bee
TTITLE12=Scratch My Back
TTITLE13=Frankenstein Baby Blues
TTITLE14=Blow Wind Blow
EXTD=
EXTT0=
EXTT1=
EXTT2=
EXTT3=
EXTT4=
EXTT5=
EXTT6=
EXTT7=
EXTT8=
EXTT9=
EXTT10=
EXTT11=
EXTT12=
EXTT13=
EXTT14=
PLAYORDER=
